<svg width="102" height="40" viewBox="0 0 102 40" fill="none" xmlns="http://www.w3.org/2000/svg">
<path d="M8.87695 11.3379C8.87695 10.7129 8.6556 10.2311 8.21289 9.89258C7.77669 9.55404 6.98568 9.21224 5.83984 8.86719C4.69401 8.52214 3.78255 8.13802 3.10547 7.71484C1.8099 6.90104 1.16211 5.83984 1.16211 4.53125C1.16211 3.38542 1.6276 2.44141 2.55859 1.69922C3.49609 0.957031 4.71029 0.585938 6.20117 0.585938C7.19076 0.585938 8.07292 0.768229 8.84766 1.13281C9.6224 1.4974 10.2311 2.01823 10.6738 2.69531C11.1165 3.36589 11.3379 4.11133 11.3379 4.93164H8.87695C8.87695 4.18945 8.64258 3.61003 8.17383 3.19336C7.71159 2.77018 7.04753 2.55859 6.18164 2.55859C5.37435 2.55859 4.74609 2.73112 4.29688 3.07617C3.85417 3.42122 3.63281 3.90299 3.63281 4.52148C3.63281 5.04232 3.8737 5.47852 4.35547 5.83008C4.83724 6.17513 5.63151 6.51367 6.73828 6.8457C7.84505 7.17122 8.73372 7.54557 9.4043 7.96875C10.0749 8.38542 10.5664 8.86719 10.8789 9.41406C11.1914 9.95443 11.3477 10.5892 11.3477 11.3184C11.3477 12.5033 10.8919 13.4473 9.98047 14.1504C9.07552 14.847 7.84505 15.1953 6.28906 15.1953C5.26042 15.1953 4.31315 15.0065 3.44727 14.6289C2.58789 14.2448 1.91732 13.7174 1.43555 13.0469C0.960286 12.3763 0.722656 11.5951 0.722656 10.7031H3.19336C3.19336 11.5104 3.46029 12.1354 3.99414 12.5781C4.52799 13.0208 5.29297 13.2422 6.28906 13.2422C7.14844 13.2422 7.79297 13.0697 8.22266 12.7246C8.65885 12.373 8.87695 11.9108 8.87695 11.3379ZM12.9418 9.61914C12.9418 8.58398 13.1469 7.65299 13.557 6.82617C13.9672 5.99284 14.5434 5.35482 15.2855 4.91211C16.0277 4.46289 16.8806 4.23828 17.8441 4.23828C19.2699 4.23828 20.4255 4.69727 21.3109 5.61523C22.2029 6.5332 22.6846 7.75065 22.7563 9.26758L22.766 9.82422C22.766 10.8659 22.5642 11.7969 22.1605 12.6172C21.7634 13.4375 21.1905 14.0723 20.4418 14.5215C19.6996 14.9707 18.8402 15.1953 17.8637 15.1953C16.3728 15.1953 15.1781 14.7005 14.2797 13.7109C13.3878 12.7148 12.9418 11.39 12.9418 9.73633V9.61914ZM15.3148 9.82422C15.3148 10.9115 15.5395 11.7643 15.9887 12.3828C16.4379 12.9948 17.0629 13.3008 17.8637 13.3008C18.6645 13.3008 19.2862 12.9883 19.7289 12.3633C20.1781 11.7383 20.4027 10.8236 20.4027 9.61914C20.4027 8.55143 20.1716 7.70508 19.7094 7.08008C19.2536 6.45508 18.6319 6.14258 17.8441 6.14258C17.0694 6.14258 16.4542 6.45182 15.9984 7.07031C15.5427 7.68229 15.3148 8.60026 15.3148 9.82422ZM29.2137 13.3008C29.8061 13.3008 30.2977 13.1283 30.6883 12.7832C31.0789 12.4382 31.2872 12.0117 31.3133 11.5039H33.5496C33.5236 12.1615 33.3185 12.7767 32.9344 13.3496C32.5503 13.916 32.0294 14.3652 31.3719 14.6973C30.7143 15.0293 30.0047 15.1953 29.243 15.1953C27.7651 15.1953 26.5932 14.7168 25.7273 13.7598C24.8615 12.8027 24.4285 11.4811 24.4285 9.79492V9.55078C24.4285 7.94271 24.8582 6.6569 25.7176 5.69336C26.577 4.72331 27.7488 4.23828 29.2332 4.23828C30.4897 4.23828 31.5118 4.60612 32.2996 5.3418C33.0939 6.07096 33.5105 7.03125 33.5496 8.22266H31.3133C31.2872 7.61719 31.0789 7.11914 30.6883 6.72852C30.3042 6.33789 29.8126 6.14258 29.2137 6.14258C28.4454 6.14258 27.853 6.42253 27.4363 6.98242C27.0197 7.53581 26.8081 8.37891 26.8016 9.51172V9.89258C26.8016 11.0384 27.0066 11.8945 27.4168 12.4609C27.8335 13.0208 28.4324 13.3008 29.2137 13.3008ZM37.966 15H35.593V4.43359H37.966V15ZM35.4465 1.68945C35.4465 1.32487 35.5604 1.02214 35.7883 0.78125C36.0227 0.540365 36.3547 0.419922 36.7844 0.419922C37.2141 0.419922 37.5461 0.540365 37.7805 0.78125C38.0148 1.02214 38.132 1.32487 38.132 1.68945C38.132 2.04753 38.0148 2.34701 37.7805 2.58789C37.5461 2.82227 37.2141 2.93945 36.7844 2.93945C36.3547 2.93945 36.0227 2.82227 35.7883 2.58789C35.5604 2.34701 35.4465 2.04753 35.4465 1.68945ZM46.9723 15C46.8681 14.7982 46.777 14.4694 46.6988 14.0137C45.9436 14.8014 45.0191 15.1953 43.9254 15.1953C42.8642 15.1953 41.9983 14.8926 41.3277 14.2871C40.6572 13.6816 40.3219 12.9329 40.3219 12.041C40.3219 10.9147 40.7385 10.0521 41.5719 9.45312C42.4117 8.84766 43.6096 8.54492 45.1656 8.54492H46.6207V7.85156C46.6207 7.30469 46.4677 6.86849 46.1617 6.54297C45.8557 6.21094 45.3902 6.04492 44.7652 6.04492C44.2249 6.04492 43.7822 6.18164 43.4371 6.45508C43.0921 6.72201 42.9195 7.0638 42.9195 7.48047H40.5465C40.5465 6.90104 40.7385 6.36068 41.1227 5.85938C41.5068 5.35156 42.0276 4.95443 42.6852 4.66797C43.3492 4.38151 44.0882 4.23828 44.902 4.23828C46.1389 4.23828 47.1253 4.55078 47.8609 5.17578C48.5966 5.79427 48.9742 6.66667 48.9938 7.79297V12.5586C48.9938 13.5091 49.1272 14.2676 49.3941 14.834V15H46.9723ZM44.3648 13.291C44.8336 13.291 45.273 13.1771 45.6832 12.9492C46.0999 12.7214 46.4124 12.4154 46.6207 12.0312V10.0391H45.3414C44.4625 10.0391 43.8017 10.1921 43.359 10.498C42.9163 10.804 42.6949 11.237 42.6949 11.7969C42.6949 12.2526 42.8447 12.6172 43.1441 12.8906C43.4501 13.1576 43.857 13.291 44.3648 13.291ZM54.1035 15H51.7305V0H54.1035V15ZM1.44531 39V24.7812H5.64453C6.90104 24.7812 8.01432 25.0612 8.98438 25.6211C9.96094 26.181 10.7161 26.9753 11.25 28.0039C11.7839 29.0326 12.0508 30.2109 12.0508 31.5391V32.252C12.0508 33.5996 11.7806 34.7845 11.2402 35.8066C10.7064 36.8288 9.94141 37.6165 8.94531 38.1699C7.95573 38.7233 6.81966 39 5.53711 39H1.44531ZM3.91602 26.7734V37.0273H5.52734C6.82292 37.0273 7.81576 36.6237 8.50586 35.8164C9.20247 35.0026 9.55729 33.8372 9.57031 32.3203V31.5293C9.57031 29.9863 9.23503 28.8079 8.56445 27.9941C7.89388 27.1803 6.92057 26.7734 5.64453 26.7734H3.91602ZM20.6957 39C20.5915 38.7982 20.5004 38.4694 20.4223 38.0137C19.6671 38.8014 18.7426 39.1953 17.6488 39.1953C16.5876 39.1953 15.7217 38.8926 15.0512 38.2871C14.3806 37.6816 14.0453 36.9329 14.0453 36.041C14.0453 34.9147 14.462 34.0521 15.2953 33.4531C16.1352 32.8477 17.3331 32.5449 18.8891 32.5449H20.3441V31.8516C20.3441 31.3047 20.1911 30.8685 19.8852 30.543C19.5792 30.2109 19.1137 30.0449 18.4887 30.0449C17.9483 30.0449 17.5056 30.1816 17.1605 30.4551C16.8155 30.722 16.643 31.0638 16.643 31.4805H14.2699C14.2699 30.901 14.462 30.3607 14.8461 29.8594C15.2302 29.3516 15.751 28.9544 16.4086 28.668C17.0727 28.3815 17.8116 28.2383 18.6254 28.2383C19.8624 28.2383 20.8487 28.5508 21.5844 29.1758C22.3201 29.7943 22.6977 30.6667 22.7172 31.793V36.5586C22.7172 37.5091 22.8507 38.2676 23.1176 38.834V39H20.6957ZM18.0883 37.291C18.557 37.291 18.9965 37.1771 19.4066 36.9492C19.8233 36.7214 20.1358 36.4154 20.3441 36.0312V34.0391H19.0648C18.1859 34.0391 17.5251 34.1921 17.0824 34.498C16.6397 34.804 16.4184 35.237 16.4184 35.7969C16.4184 36.2526 16.5681 36.6172 16.8676 36.8906C17.1736 37.1576 17.5805 37.291 18.0883 37.291ZM31.2254 36.1289C31.2254 35.7057 31.0496 35.3835 30.698 35.1621C30.353 34.9408 29.7768 34.7454 28.9695 34.5762C28.1622 34.4069 27.4884 34.1921 26.948 33.9316C25.7632 33.3587 25.1707 32.5286 25.1707 31.4414C25.1707 30.5299 25.5548 29.7682 26.323 29.1562C27.0913 28.5443 28.0678 28.2383 29.2527 28.2383C30.5158 28.2383 31.5346 28.5508 32.3094 29.1758C33.0906 29.8008 33.4813 30.6113 33.4813 31.6074H31.1082C31.1082 31.1517 30.9389 30.7741 30.6004 30.4746C30.2618 30.1686 29.8126 30.0156 29.2527 30.0156C28.7319 30.0156 28.3055 30.1361 27.9734 30.377C27.6479 30.6178 27.4852 30.9401 27.4852 31.3438C27.4852 31.7083 27.6382 31.9915 27.9441 32.1934C28.2501 32.3952 28.8686 32.6003 29.7996 32.8086C30.7306 33.0104 31.4598 33.2546 31.9871 33.541C32.521 33.821 32.9148 34.1595 33.1688 34.5566C33.4292 34.9538 33.5594 35.4355 33.5594 36.002C33.5594 36.9525 33.1655 37.724 32.3777 38.3164C31.59 38.9023 30.5581 39.1953 29.282 39.1953C28.4161 39.1953 27.6447 39.0391 26.9676 38.7266C26.2905 38.4141 25.7632 37.9844 25.3855 37.4375C25.0079 36.8906 24.8191 36.3014 24.8191 35.6699H27.1238C27.1564 36.2298 27.368 36.6628 27.7586 36.9688C28.1492 37.2682 28.6668 37.418 29.3113 37.418C29.9363 37.418 30.4116 37.3008 30.7371 37.0664C31.0626 36.8255 31.2254 36.513 31.2254 36.1289ZM38.0734 29.5859C38.8482 28.6875 39.828 28.2383 41.0129 28.2383C43.2655 28.2383 44.4081 29.5241 44.4406 32.0957V39H42.0676V32.1836C42.0676 31.4544 41.9081 30.9401 41.5891 30.6406C41.2766 30.3346 40.8143 30.1816 40.2023 30.1816C39.2518 30.1816 38.5422 30.6048 38.0734 31.4512V39H35.7004V24H38.0734V29.5859ZM56.2203 33.8242C56.2203 35.4648 55.8525 36.7702 55.1168 37.7402C54.3876 38.7103 53.3818 39.1953 52.0992 39.1953C50.8622 39.1953 49.8987 38.7493 49.2086 37.8574L49.0914 39H46.943V24H49.316V29.4492C49.9996 28.6419 50.9208 28.2383 52.0797 28.2383C53.3688 28.2383 54.3811 28.7168 55.1168 29.6738C55.8525 30.6309 56.2203 31.9688 56.2203 33.6875V33.8242ZM53.8473 33.6191C53.8473 32.4733 53.6454 31.6139 53.2418 31.041C52.8382 30.4681 52.2522 30.1816 51.484 30.1816C50.4553 30.1816 49.7327 30.6309 49.316 31.5293V35.8848C49.7392 36.8027 50.4684 37.2617 51.5035 37.2617C52.2457 37.2617 52.8186 36.985 53.2223 36.4316C53.6259 35.8783 53.8342 35.0417 53.8473 33.9219V33.6191ZM57.873 33.6191C57.873 32.584 58.0781 31.653 58.4883 30.8262C58.8984 29.9928 59.4746 29.3548 60.2168 28.9121C60.959 28.4629 61.8118 28.2383 62.7754 28.2383C64.2012 28.2383 65.3568 28.6973 66.2422 29.6152C67.1341 30.5332 67.6159 31.7507 67.6875 33.2676L67.6973 33.8242C67.6973 34.8659 67.4954 35.7969 67.0918 36.6172C66.6947 37.4375 66.1217 38.0723 65.373 38.5215C64.6309 38.9707 63.7715 39.1953 62.7949 39.1953C61.304 39.1953 60.1094 38.7005 59.2109 37.7109C58.319 36.7148 57.873 35.39 57.873 33.7363V33.6191ZM60.2461 33.8242C60.2461 34.9115 60.4707 35.7643 60.9199 36.3828C61.3691 36.9948 61.9941 37.3008 62.7949 37.3008C63.5957 37.3008 64.2174 36.9883 64.6602 36.3633C65.1094 35.7383 65.334 34.8236 65.334 33.6191C65.334 32.5514 65.1029 31.7051 64.6406 31.0801C64.1849 30.4551 63.5632 30.1426 62.7754 30.1426C62.0007 30.1426 61.3854 30.4518 60.9297 31.0703C60.474 31.6823 60.2461 32.6003 60.2461 33.8242ZM76.1176 39C76.0134 38.7982 75.9223 38.4694 75.8441 38.0137C75.0889 38.8014 74.1645 39.1953 73.0707 39.1953C72.0095 39.1953 71.1436 38.8926 70.473 38.2871C69.8025 37.6816 69.4672 36.9329 69.4672 36.041C69.4672 34.9147 69.8839 34.0521 70.7172 33.4531C71.557 32.8477 72.7549 32.5449 74.3109 32.5449H75.766V31.8516C75.766 31.3047 75.613 30.8685 75.307 30.543C75.001 30.2109 74.5355 30.0449 73.9105 30.0449C73.3702 30.0449 72.9275 30.1816 72.5824 30.4551C72.2374 30.722 72.0648 31.0638 72.0648 31.4805H69.6918C69.6918 30.901 69.8839 30.3607 70.268 29.8594C70.6521 29.3516 71.1729 28.9544 71.8305 28.668C72.4945 28.3815 73.2335 28.2383 74.0473 28.2383C75.2842 28.2383 76.2706 28.5508 77.0062 29.1758C77.7419 29.7943 78.1195 30.6667 78.1391 31.793V36.5586C78.1391 37.5091 78.2725 38.2676 78.5395 38.834V39H76.1176ZM73.5102 37.291C73.9789 37.291 74.4184 37.1771 74.8285 36.9492C75.2452 36.7214 75.5577 36.4154 75.766 36.0312V34.0391H74.4867C73.6078 34.0391 72.947 34.1921 72.5043 34.498C72.0616 34.804 71.8402 35.237 71.8402 35.7969C71.8402 36.2526 71.99 36.6172 72.2895 36.8906C72.5954 37.1576 73.0023 37.291 73.5102 37.291ZM86.2566 30.6016C85.9441 30.5495 85.6219 30.5234 85.2898 30.5234C84.2026 30.5234 83.4702 30.9401 83.0926 31.7734V39H80.7195V28.4336H82.9852L83.0437 29.6152C83.6167 28.6973 84.4109 28.2383 85.4266 28.2383C85.7651 28.2383 86.045 28.2839 86.2664 28.375L86.2566 30.6016ZM87.216 33.6387C87.216 32.0111 87.5936 30.7057 88.3488 29.7227C89.104 28.7331 90.1164 28.2383 91.3859 28.2383C92.5057 28.2383 93.4107 28.6289 94.1008 29.4102V24H96.4738V39H94.3254L94.2082 37.9062C93.4986 38.7656 92.5513 39.1953 91.3664 39.1953C90.1294 39.1953 89.1268 38.6973 88.3586 37.7012C87.5969 36.7051 87.216 35.3509 87.216 33.6387ZM89.5891 33.8438C89.5891 34.918 89.7941 35.7578 90.2043 36.3633C90.621 36.9622 91.2102 37.2617 91.9719 37.2617C92.9419 37.2617 93.6516 36.8288 94.1008 35.9629V31.4512C93.6646 30.6048 92.9615 30.1816 91.9914 30.1816C91.2232 30.1816 90.6307 30.4876 90.2141 31.0996C89.7974 31.7051 89.5891 32.6198 89.5891 33.8438Z" fill="black"/>
<path d="M100.529 36.5C100.972 36.5 101.313 36.627 101.554 36.8809C101.795 37.1283 101.916 37.4408 101.916 37.8184C101.916 38.1895 101.795 38.4987 101.554 38.7461C101.313 38.987 100.972 39.1074 100.529 39.1074C100.106 39.1074 99.7704 38.987 99.523 38.7461C99.2757 38.5052 99.152 38.196 99.152 37.8184C99.152 37.4408 99.2724 37.1283 99.5133 36.8809C99.7542 36.627 100.093 36.5 100.529 36.5Z" fill="#6155BB"/>
</svg>
